<?xml version="1.0" encoding="utf-8"?>
<!-- Generator: Adobe Illustrator 16.0.0, SVG Export Plug-In . SVG Version: 6.00 Build 0)  -->
<!DOCTYPE svg PUBLIC "-//W3C//DTD SVG 1.1//EN" "http://www.w3.org/Graphics/SVG/1.1/DTD/svg11.dtd">
<svg version="1.1" id="Layer_1" xmlns="http://www.w3.org/2000/svg" xmlns:xlink="http://www.w3.org/1999/xlink" x="0px" y="0px"
	 width="379.971px" height="181.529px" viewBox="0 0 379.971 181.529" enable-background="new 0 0 379.971 181.529"
	 xml:space="preserve">
<g>
	<path fill="#333333" d="M0,27.481h54.131C89.803,27.658,116.424,48.778,116.424,88c0,38.867-26.621,60.164-62.293,60.164H0V27.481z
		 M29.816,53.393v68.86h23.072c19.521,0,32.832-12.246,32.832-34.253c0-22.361-13.311-34.607-32.832-34.607H29.816z"/>
	<path fill="#333333" d="M139.852,87.29c0-4.792-0.889-8.519-5.68-8.519c-3.727,0-8.164,1.774-9.051,2.307l-0.889-23.427
		c0.711-0.887,11.004-3.904,22.008-3.904s18.457,4.082,21.652,13.666c4.436-8.342,10.824-13.666,22.539-13.666
		c8.695,0,15.795,3.195,16.504,4.438l-3.727,27.153c-0.887-1.242-8.873-4.082-17.748-4.082c-11.002,0-14.906,8.874-15.795,18.458
		v48.45h-29.814V87.29z"/>
	<path fill="#333333" d="M280.939,181.529V87.29c0-4.969-0.887-8.519-5.68-8.519c-3.727,0-8.164,1.597-9.051,2.484l-0.887-23.781
		c0.709-0.532,10.826-3.904,22.006-3.904c10.471,0,17.926,3.549,21.297,12.601c5.857-7.276,14.908-12.424,28.396-12.424
		c25.379,0,42.949,20.055,42.949,48.273c0,27.863-17.57,47.918-42.949,47.918c-11.182,0-20.232-3.904-26.266-9.583v41.174H280.939z
		 M310.756,86.402v31.059c4.436,3.904,11.18,6.566,17.746,6.566c12.779,0,21.121-8.519,21.121-22.007
		c0-13.665-8.164-22.361-21.121-22.361C321.582,79.659,314.482,82.676,310.756,86.402z"/>
	<g>
		<path fill="#333333" d="M260.354,122.431c-0.531,0.532-4.969,2.484-8.695,2.484c-4.793,0-5.68-3.904-5.68-8.519V55.345h-29.816
			v68.328c0,18.812,8.52,26.266,23.25,26.266c11.182,0,21.475-3.194,22.184-3.904L260.354,122.431z"/>
		<linearGradient id="SVGID_1_" gradientUnits="userSpaceOnUse" x1="231.082" y1="41.6377" x2="231.082" y2="0">
			<stop  offset="0" style="stop-color:#2746F1"/>
			<stop  offset="1" style="stop-color:#61B7F5"/>
		</linearGradient>
		<path fill="url(#SVGID_1_)" d="M231.082,41.638c9.635,0,16.117-3.504,16.117-13.313c0-3.66-1.59-8.366-5.053-13.198
			C238.5,10.042,236.174,9.218,231.082,0c-5.092,9.218-7.42,10.042-11.064,15.126c-3.463,4.832-5.053,9.538-5.053,13.198
			C214.965,38.134,221.447,41.638,231.082,41.638z M220.502,15.375c3.486-4.862,5.711-5.649,10.58-14.465
			c4.869,8.815,7.094,9.603,10.58,14.465c3.311,4.621,4.83,9.122,4.83,12.62c0,9.381-6.197,12.732-15.41,12.732
			s-15.412-3.352-15.412-12.732C215.67,24.497,217.189,19.996,220.502,15.375z"/>
		<linearGradient id="SVGID_2_" gradientUnits="userSpaceOnUse" x1="231.0811" y1="41.6377" x2="231.0811" y2="-1.373291e-04">
			<stop  offset="0" style="stop-color:#2746F1"/>
			<stop  offset="1" style="stop-color:#61B7F5"/>
		</linearGradient>
		<path fill="url(#SVGID_2_)" d="M231.082,40.728c9.213,0,15.41-3.352,15.41-12.732c0-3.498-1.52-7.999-4.83-12.62
			c-3.486-4.862-5.711-5.649-10.58-14.465c-4.869,8.815-7.094,9.603-10.58,14.465c-3.312,4.621-4.832,9.122-4.832,12.62
			C215.67,37.376,221.869,40.728,231.082,40.728z"/>
		<linearGradient id="SVGID_3_" gradientUnits="userSpaceOnUse" x1="231.0811" y1="40.7275" x2="231.0811" y2="0.9102">
			<stop  offset="0" style="stop-color:#275AF1"/>
			<stop  offset="0.1582" style="stop-color:#336DF2"/>
			<stop  offset="0.5228" style="stop-color:#4C92F4"/>
			<stop  offset="0.8162" style="stop-color:#5BA9F5"/>
			<stop  offset="1" style="stop-color:#61B2F5"/>
		</linearGradient>
		<path fill="url(#SVGID_3_)" d="M231.082,40.728c9.213,0,15.41-3.352,15.41-12.732c0-3.498-1.52-7.999-4.83-12.62
			c-3.486-4.862-5.711-5.649-10.58-14.465c-4.869,8.815-7.094,9.603-10.58,14.465c-3.312,4.621-4.832,9.122-4.832,12.62
			C215.67,37.376,221.869,40.728,231.082,40.728z"/>
	</g>
</g>
</svg>
